<svg
  width="17"
  height="16"
  viewBox="0 0 17 16"
  fill="none"
  xmlns="http://www.w3.org/2000/svg"
>
  <path
    fill-rule="evenodd"
    clip-rule="evenodd"
    d="M7.22647 8.0048L7.22748 8.24087C7.23559 9.17719 7.29203 10.0126 7.38937 10.542C7.38937 10.5515 7.49556 11.0766 7.56319 11.2514C7.66937 11.504 7.86137 11.7184 8.10209 11.8543C8.29482 11.9512 8.497 12.0004 8.70863 12.0004C8.87499 11.9927 9.14935 11.909 9.34517 11.8388L9.50789 11.7764C10.5857 11.3483 12.646 9.94936 13.4351 9.09384L13.4933 9.03404L13.7529 8.75384C13.9166 8.53941 14.0031 8.27725 14.0031 7.99526C14.0031 7.74264 13.926 7.49002 13.7718 7.28588C13.7257 7.21973 13.6513 7.13488 13.5852 7.06319L13.3324 6.79866C12.4628 5.91754 10.5799 4.68162 9.60389 4.27211C9.60389 4.26329 8.99736 4.00994 8.70863 4.0004H8.67009C8.22718 4.0004 7.81337 4.25301 7.60174 4.66131C7.54392 4.77293 7.48846 4.99158 7.44628 5.18362L7.37047 5.5462C7.28392 6.12928 7.22647 7.02371 7.22647 8.0048ZM3.00528 6.98817C2.45183 6.98817 2.00311 7.44126 2.00311 8.0001C2.00311 8.55894 2.45183 9.01204 3.00528 9.01204L5.47143 8.79393C5.90561 8.79393 6.25761 8.43924 6.25761 8.0001C6.25761 7.5617 5.90561 7.20627 5.47143 7.20627L3.00528 6.98817Z"
  />
</svg>
