<svg
  width="16"
  height="16"
  viewBox="0 0 16 16"
  fill="none"
  xmlns="http://www.w3.org/2000/svg"
>
  <path
    d="M7.48696 4.86051V2.18783C7.48696 1.90364 7.71362 1.66682 8.00029 1.66682C8.25696 1.66682 8.47441 1.86582 8.50887 2.11788L8.51362 2.18783V4.86051L11.7002 4.86071C13.2869 4.86071 14.5905 6.16001 14.6636 7.78043L14.6669 7.92422V11.2838C14.6669 12.9155 13.4087 14.255 11.8456 14.3302L11.7069 14.3335L4.29356 14.3335C2.70689 14.3335 1.40962 13.0407 1.33678 11.4143L1.33356 11.27L1.33356 7.91733C1.33356 6.28556 2.5855 4.93963 4.14822 4.86406L4.28689 4.86071L7.48689 4.86071V9.12897L6.42022 8.02748C6.22022 7.82095 5.89356 7.82095 5.69356 8.02748C5.59356 8.13075 5.54689 8.26843 5.54689 8.40612C5.54689 8.51076 5.57676 8.61981 5.6399 8.71211L5.69356 8.77787L7.63356 10.7881C7.72689 10.8913 7.86022 10.9464 8.00022 10.9464C8.11133 10.9464 8.22245 10.9082 8.31041 10.8357L8.36022 10.7881L10.3002 8.77787C10.5002 8.57134 10.5002 8.23401 10.3002 8.02748C10.1184 7.83973 9.8319 7.82266 9.63105 7.97628L9.57356 8.02748L8.51356 9.12897V4.86071L7.48696 4.86051Z"
  />
</svg>
