<svg
  width="16"
  height="16"
  viewBox="0 0 16 16"
  fill="none"
  xmlns="http://www.w3.org/2000/svg"
>
  <path
    fill-rule="evenodd"
    clip-rule="evenodd"
    d="M8.10546 11.094L9.99985 9.18069C10.1913 8.98069 10.1913 8.66736 9.99325 8.47403C9.80183 8.28069 9.4916 8.28069 9.30018 8.47403L8.25067 9.54069V6.32736C8.25067 6.04736 8.03285 5.82736 7.76222 5.82736C7.4916 5.82736 7.26717 6.04736 7.26717 6.32736V9.54069L6.21767 8.47403C6.02625 8.28069 5.71602 8.28069 5.5246 8.47403C5.33318 8.66736 5.33318 8.98069 5.5246 9.18069L7.41239 11.094C7.45859 11.1407 7.5114 11.174 7.5708 11.2007C7.63021 11.2274 7.69622 11.2407 7.76222 11.2407C7.82823 11.2407 7.88764 11.2274 7.94704 11.2007C8.00645 11.174 8.05925 11.1407 8.10546 11.094ZM12.8885 6.01777C13.0437 6.01598 13.2126 6.01403 13.3661 6.01403C13.5377 6.01403 13.6698 6.14736 13.6698 6.31403V11.674C13.6698 13.3274 12.3364 14.6674 10.6995 14.6674L5.45194 14.6674C3.72917 14.6674 2.33643 13.2607 2.33643 11.5274V4.3407C2.33643 2.68736 3.66316 1.33403 5.31332 1.33403L8.83808 1.33403C9.00309 1.33403 9.14171 1.47403 9.14171 1.6407V3.78736C9.14171 5.00736 10.1318 6.00736 11.3463 6.01403C11.6253 6.01403 11.8749 6.01615 12.0928 6.01799C12.2616 6.01943 12.4114 6.0207 12.541 6.0207C12.635 6.0207 12.7568 6.01929 12.8885 6.01777ZM13.0728 5.04477C12.5309 5.04677 11.8913 5.04477 11.4313 5.0401C10.7012 5.0401 10.0999 4.43277 10.0999 3.69543V1.9381C10.0999 1.65077 10.4451 1.5081 10.6418 1.71543C11.1503 2.24899 11.9289 3.06679 12.5868 3.7578C12.8529 4.03726 13.0992 4.29598 13.2999 4.50677C13.4926 4.70877 13.3514 5.0441 13.0728 5.04477Z"
  />
</svg>
