<svg
  width="16"
  height="16"
  viewBox="0 0 16 16"
  fill="none"
  xmlns="http://www.w3.org/2000/svg"
>
  <path
    fill-rule="evenodd"
    clip-rule="evenodd"
    d="M11.8461 5.58767L14.6669 5.58767C14.6669 3.32286 13.3099 1.9998 11.0106 1.9998L4.98985 1.9998C2.69059 1.9998 1.33356 3.32286 1.33356 5.55878V10.4408C1.33356 12.6767 2.69059 13.9998 4.98985 13.9998L11.0106 13.9998C13.3099 13.9998 14.6669 12.6767 14.6669 10.4408V10.2328L11.8461 10.2328C10.537 10.2328 9.47578 9.19815 9.47578 7.9218C9.47578 6.64546 10.537 5.61078 11.8461 5.61078V5.58767ZM11.8449 6.58144L14.1679 6.58144C14.4428 6.58144 14.6656 6.79872 14.6656 7.06675V8.7538C14.6624 9.02053 14.4414 9.236 14.1679 9.23912L11.8982 9.23912C11.2355 9.24781 10.656 8.80541 10.5056 8.17604C10.4304 7.78536 10.536 7.38221 10.7944 7.07464C11.0527 6.76707 11.4372 6.58654 11.8449 6.58144ZM11.9486 8.35523H12.1679C12.4493 8.35523 12.6775 8.13277 12.6775 7.85836C12.6775 7.58394 12.4493 7.36149 12.1679 7.36149H11.9486C11.814 7.35994 11.6844 7.411 11.5886 7.50326C11.4929 7.59553 11.439 7.72133 11.439 7.85258C11.439 8.12794 11.6662 8.35206 11.9486 8.35523ZM4.49307 5.58804L8.25603 5.58804C8.53749 5.58804 8.76566 5.36559 8.76566 5.09117C8.76566 4.81676 8.53749 4.5943 8.25603 4.5943L4.49307 4.5943C4.21391 4.59428 3.98668 4.81324 3.98344 5.08539C3.98342 5.36076 4.21065 5.58488 4.49307 5.58804Z"
  />
</svg>
